<mxfile host="app.diagrams.net" modified="2023-11-29T12:55:35.207Z" agent="Mozilla/5.0 (Macintosh; Intel Mac OS X 10_15_7) AppleWebKit/537.36 (KHTML, like Gecko) Chrome/119.0.0.0 Safari/537.36" etag="lR9Vv6t-i-Hs092RF6xq" version="22.1.4" type="github">
  <diagram name="Страница — 1" id="ZqEQ2uIjSCoxPEkew0uO">
    <mxGraphModel dx="434" dy="292" grid="1" gridSize="10" guides="1" tooltips="1" connect="1" arrows="1" fold="1" page="1" pageScale="1" pageWidth="827" pageHeight="1169" math="0" shadow="0">
      <root>
        <mxCell id="0" />
        <mxCell id="1" parent="0" />
        <mxCell id="WnLP0OA23K2Bo2pzQ6Bt-3" value="" style="rounded=0;whiteSpace=wrap;html=1;fillColor=none;" parent="1" vertex="1">
          <mxGeometry x="32" y="175" width="630" height="705" as="geometry" />
        </mxCell>
        <mxCell id="T9pTu-QHJXgR7XEYWg38-1" value="&lt;font style=&quot;font-size: 24px;&quot;&gt;&lt;b&gt;laar|Projects&lt;/b&gt;&lt;/font&gt;" style="text;html=1;strokeColor=none;fillColor=none;align=center;verticalAlign=middle;whiteSpace=wrap;rounded=0;" parent="1" vertex="1">
          <mxGeometry x="20" y="20" width="140" height="30" as="geometry" />
        </mxCell>
        <mxCell id="WnLP0OA23K2Bo2pzQ6Bt-5" value="&lt;font style=&quot;font-size: 24px;&quot;&gt;&lt;b&gt;laar|Hardware&lt;/b&gt;&lt;/font&gt;" style="text;html=1;strokeColor=none;fillColor=none;align=center;verticalAlign=middle;whiteSpace=wrap;rounded=0;" parent="1" vertex="1">
          <mxGeometry x="32" y="145" width="157" height="30" as="geometry" />
        </mxCell>
        <mxCell id="WnLP0OA23K2Bo2pzQ6Bt-11" value="" style="rounded=0;whiteSpace=wrap;html=1;fillColor=none;" parent="1" vertex="1">
          <mxGeometry x="358.5" y="220" width="277" height="390" as="geometry" />
        </mxCell>
        <mxCell id="WnLP0OA23K2Bo2pzQ6Bt-12" value="&lt;span style=&quot;font-size: 24px;&quot;&gt;&lt;b&gt;Вакансии&lt;/b&gt;&lt;/span&gt;" style="text;html=1;strokeColor=none;fillColor=none;align=center;verticalAlign=middle;whiteSpace=wrap;rounded=0;" parent="1" vertex="1">
          <mxGeometry x="55" y="360" width="120" height="30" as="geometry" />
        </mxCell>
        <mxCell id="WnLP0OA23K2Bo2pzQ6Bt-13" value="&lt;span style=&quot;font-size: 14px;&quot;&gt;&lt;b&gt;Аппаратные исследования, тестирования, прототипирования и разработка новых идея для последующего внедрения в реальные устройства.&lt;/b&gt;&lt;/span&gt;" style="rounded=0;whiteSpace=wrap;html=1;fillColor=none;" parent="1" vertex="1">
          <mxGeometry x="55" y="220" width="270" height="120" as="geometry" />
        </mxCell>
        <mxCell id="WnLP0OA23K2Bo2pzQ6Bt-14" value="&lt;span style=&quot;font-size: 24px;&quot;&gt;&lt;b&gt;Цель&lt;/b&gt;&lt;/span&gt;" style="text;html=1;strokeColor=none;fillColor=none;align=center;verticalAlign=middle;whiteSpace=wrap;rounded=0;" parent="1" vertex="1">
          <mxGeometry x="55" y="190" width="60" height="30" as="geometry" />
        </mxCell>
        <mxCell id="WnLP0OA23K2Bo2pzQ6Bt-15" value="" style="rounded=0;whiteSpace=wrap;html=1;fillColor=none;" parent="1" vertex="1">
          <mxGeometry x="55" y="390" width="270" height="190" as="geometry" />
        </mxCell>
        <mxCell id="WnLP0OA23K2Bo2pzQ6Bt-16" value="&lt;span style=&quot;font-size: 24px;&quot;&gt;&lt;b&gt;Основные задачи&lt;/b&gt;&lt;/span&gt;" style="text;html=1;strokeColor=none;fillColor=none;align=center;verticalAlign=middle;whiteSpace=wrap;rounded=0;" parent="1" vertex="1">
          <mxGeometry x="358.5" y="190" width="217" height="30" as="geometry" />
        </mxCell>
        <mxCell id="WnLP0OA23K2Bo2pzQ6Bt-17" value="" style="rounded=0;whiteSpace=wrap;html=1;fillColor=none;" parent="1" vertex="1">
          <mxGeometry x="55" y="640" width="580" height="200" as="geometry" />
        </mxCell>
        <mxCell id="WnLP0OA23K2Bo2pzQ6Bt-18" value="&lt;span style=&quot;font-size: 24px;&quot;&gt;&lt;b&gt;Кратко о чем&lt;/b&gt;&lt;/span&gt;" style="text;html=1;strokeColor=none;fillColor=none;align=center;verticalAlign=middle;whiteSpace=wrap;rounded=0;" parent="1" vertex="1">
          <mxGeometry x="55" y="610" width="170" height="30" as="geometry" />
        </mxCell>
        <mxCell id="WnLP0OA23K2Bo2pzQ6Bt-19" value="" style="rounded=0;whiteSpace=wrap;html=1;fillColor=none;" parent="1" vertex="1">
          <mxGeometry x="2680" y="240" width="600" height="600" as="geometry" />
        </mxCell>
        <mxCell id="WnLP0OA23K2Bo2pzQ6Bt-20" value="&lt;font style=&quot;font-size: 24px;&quot;&gt;&lt;b&gt;laar|Market&lt;/b&gt;&lt;/font&gt;" style="text;html=1;strokeColor=none;fillColor=none;align=center;verticalAlign=middle;whiteSpace=wrap;rounded=0;" parent="1" vertex="1">
          <mxGeometry x="2680" y="210" width="127" height="30" as="geometry" />
        </mxCell>
        <mxCell id="WnLP0OA23K2Bo2pzQ6Bt-21" value="" style="rounded=0;whiteSpace=wrap;html=1;fillColor=none;" parent="1" vertex="1">
          <mxGeometry x="2994" y="284" width="270" height="320" as="geometry" />
        </mxCell>
        <mxCell id="WnLP0OA23K2Bo2pzQ6Bt-22" value="&lt;span style=&quot;font-size: 24px;&quot;&gt;&lt;b&gt;Вакансии&lt;/b&gt;&lt;/span&gt;" style="text;html=1;strokeColor=none;fillColor=none;align=center;verticalAlign=middle;whiteSpace=wrap;rounded=0;" parent="1" vertex="1">
          <mxGeometry x="2700" y="380" width="120" height="30" as="geometry" />
        </mxCell>
        <mxCell id="WnLP0OA23K2Bo2pzQ6Bt-23" value="&lt;p style=&quot;margin: 0cm; font-family: Calibri, sans-serif; text-align: start; font-size: 10px;&quot; class=&quot;MsoNormal&quot;&gt;&lt;b&gt;Создание платформ для пользователей, где можно скачивать приложения для экосистемы &lt;span style=&quot;font-family: &amp;quot;Times New Roman&amp;quot;, serif;&quot; lang=&quot;EN-US&quot;&gt;laar&lt;/span&gt;&lt;/b&gt;&lt;span style=&quot;font-family: &amp;quot;Times New Roman&amp;quot;, serif;&quot;&gt;&lt;b&gt;, а также разработка платформы для их легкой и беспроблемной дистрибуции.&lt;/b&gt;&lt;/span&gt;&lt;/p&gt;" style="rounded=0;whiteSpace=wrap;html=1;fillColor=none;" parent="1" vertex="1">
          <mxGeometry x="2700" y="285" width="270" height="80" as="geometry" />
        </mxCell>
        <mxCell id="WnLP0OA23K2Bo2pzQ6Bt-24" value="&lt;span style=&quot;font-size: 24px;&quot;&gt;&lt;b&gt;Цель&lt;/b&gt;&lt;/span&gt;" style="text;html=1;strokeColor=none;fillColor=none;align=center;verticalAlign=middle;whiteSpace=wrap;rounded=0;" parent="1" vertex="1">
          <mxGeometry x="2700" y="255" width="60" height="30" as="geometry" />
        </mxCell>
        <mxCell id="WnLP0OA23K2Bo2pzQ6Bt-25" value="" style="rounded=0;whiteSpace=wrap;html=1;fillColor=none;" parent="1" vertex="1">
          <mxGeometry x="2700" y="405" width="270" height="195" as="geometry" />
        </mxCell>
        <mxCell id="WnLP0OA23K2Bo2pzQ6Bt-26" value="&lt;span style=&quot;font-size: 24px;&quot;&gt;&lt;b&gt;Основные задачи&lt;/b&gt;&lt;/span&gt;" style="text;html=1;strokeColor=none;fillColor=none;align=center;verticalAlign=middle;whiteSpace=wrap;rounded=0;" parent="1" vertex="1">
          <mxGeometry x="2994" y="250" width="217" height="30" as="geometry" />
        </mxCell>
        <mxCell id="WnLP0OA23K2Bo2pzQ6Bt-27" value="" style="rounded=0;whiteSpace=wrap;html=1;fillColor=none;" parent="1" vertex="1">
          <mxGeometry x="2700" y="643" width="560" height="175" as="geometry" />
        </mxCell>
        <mxCell id="WnLP0OA23K2Bo2pzQ6Bt-28" value="&lt;span style=&quot;font-size: 24px;&quot;&gt;&lt;b&gt;Кратко о чем&lt;/b&gt;&lt;/span&gt;" style="text;html=1;strokeColor=none;fillColor=none;align=center;verticalAlign=middle;whiteSpace=wrap;rounded=0;" parent="1" vertex="1">
          <mxGeometry x="2700" y="615" width="164" height="30" as="geometry" />
        </mxCell>
        <mxCell id="WnLP0OA23K2Bo2pzQ6Bt-29" value="" style="rounded=0;whiteSpace=wrap;html=1;fillColor=none;" parent="1" vertex="1">
          <mxGeometry x="972" y="108" width="630" height="907" as="geometry" />
        </mxCell>
        <mxCell id="WnLP0OA23K2Bo2pzQ6Bt-30" value="&lt;font style=&quot;font-size: 24px;&quot;&gt;&lt;b&gt;laar|Software&lt;/b&gt;&lt;/font&gt;" style="text;html=1;strokeColor=none;fillColor=none;align=center;verticalAlign=middle;whiteSpace=wrap;rounded=0;" parent="1" vertex="1">
          <mxGeometry x="972" y="75" width="157" height="30" as="geometry" />
        </mxCell>
        <mxCell id="WnLP0OA23K2Bo2pzQ6Bt-31" value="" style="rounded=0;whiteSpace=wrap;html=1;fillColor=none;" parent="1" vertex="1">
          <mxGeometry x="1302" y="150" width="270" height="500" as="geometry" />
        </mxCell>
        <mxCell id="WnLP0OA23K2Bo2pzQ6Bt-32" value="&lt;span style=&quot;font-size: 24px;&quot;&gt;&lt;b&gt;Вакансии&lt;/b&gt;&lt;/span&gt;" style="text;html=1;strokeColor=none;fillColor=none;align=center;verticalAlign=middle;whiteSpace=wrap;rounded=0;" parent="1" vertex="1">
          <mxGeometry x="1001" y="320" width="120" height="30" as="geometry" />
        </mxCell>
        <mxCell id="WnLP0OA23K2Bo2pzQ6Bt-33" value="" style="rounded=0;whiteSpace=wrap;html=1;fillColor=none;" parent="1" vertex="1">
          <mxGeometry x="1001" y="150" width="270" height="155" as="geometry" />
        </mxCell>
        <mxCell id="WnLP0OA23K2Bo2pzQ6Bt-34" value="&lt;span style=&quot;font-size: 24px;&quot;&gt;&lt;b&gt;Цель&lt;/b&gt;&lt;/span&gt;" style="text;html=1;strokeColor=none;fillColor=none;align=center;verticalAlign=middle;whiteSpace=wrap;rounded=0;" parent="1" vertex="1">
          <mxGeometry x="1001" y="120" width="60" height="30" as="geometry" />
        </mxCell>
        <mxCell id="WnLP0OA23K2Bo2pzQ6Bt-35" value="" style="rounded=0;whiteSpace=wrap;html=1;fillColor=none;" parent="1" vertex="1">
          <mxGeometry x="1001" y="350" width="270" height="235" as="geometry" />
        </mxCell>
        <mxCell id="WnLP0OA23K2Bo2pzQ6Bt-36" value="&lt;span style=&quot;font-size: 24px;&quot;&gt;&lt;b&gt;Основные задачи&lt;/b&gt;&lt;/span&gt;" style="text;html=1;strokeColor=none;fillColor=none;align=center;verticalAlign=middle;whiteSpace=wrap;rounded=0;" parent="1" vertex="1">
          <mxGeometry x="1302" y="120" width="217" height="30" as="geometry" />
        </mxCell>
        <mxCell id="WnLP0OA23K2Bo2pzQ6Bt-37" value="" style="rounded=0;whiteSpace=wrap;html=1;fillColor=none;" parent="1" vertex="1">
          <mxGeometry x="1001.44" y="665" width="570.56" height="309.5" as="geometry" />
        </mxCell>
        <mxCell id="WnLP0OA23K2Bo2pzQ6Bt-38" value="&lt;span style=&quot;font-size: 24px;&quot;&gt;&lt;b&gt;Кратко о чем&lt;/b&gt;&lt;/span&gt;" style="text;html=1;strokeColor=none;fillColor=none;align=center;verticalAlign=middle;whiteSpace=wrap;rounded=0;" parent="1" vertex="1">
          <mxGeometry x="1001" y="629.5" width="163" height="30" as="geometry" />
        </mxCell>
        <mxCell id="WnLP0OA23K2Bo2pzQ6Bt-39" value="" style="rounded=0;whiteSpace=wrap;html=1;fillColor=none;" parent="1" vertex="1">
          <mxGeometry x="1823" y="110" width="630" height="910" as="geometry" />
        </mxCell>
        <mxCell id="WnLP0OA23K2Bo2pzQ6Bt-40" value="&lt;font style=&quot;font-size: 24px;&quot;&gt;&lt;b&gt;laar|Cloud&lt;/b&gt;&lt;/font&gt;" style="text;html=1;strokeColor=none;fillColor=none;align=center;verticalAlign=middle;whiteSpace=wrap;rounded=0;" parent="1" vertex="1">
          <mxGeometry x="1823" y="70" width="127" height="30" as="geometry" />
        </mxCell>
        <mxCell id="WnLP0OA23K2Bo2pzQ6Bt-41" value="" style="rounded=0;whiteSpace=wrap;html=1;fillColor=none;" parent="1" vertex="1">
          <mxGeometry x="2149.88" y="155" width="270" height="495" as="geometry" />
        </mxCell>
        <mxCell id="WnLP0OA23K2Bo2pzQ6Bt-42" value="&lt;span style=&quot;font-size: 24px;&quot;&gt;&lt;b&gt;Вакансии&lt;/b&gt;&lt;/span&gt;" style="text;html=1;strokeColor=none;fillColor=none;align=center;verticalAlign=middle;whiteSpace=wrap;rounded=0;" parent="1" vertex="1">
          <mxGeometry x="1853" y="360" width="120" height="30" as="geometry" />
        </mxCell>
        <mxCell id="WnLP0OA23K2Bo2pzQ6Bt-43" value="" style="rounded=0;whiteSpace=wrap;html=1;fillColor=none;" parent="1" vertex="1">
          <mxGeometry x="1853" y="155" width="270" height="196" as="geometry" />
        </mxCell>
        <mxCell id="WnLP0OA23K2Bo2pzQ6Bt-44" value="&lt;span style=&quot;font-size: 24px;&quot;&gt;&lt;b&gt;Цель&lt;/b&gt;&lt;/span&gt;" style="text;html=1;strokeColor=none;fillColor=none;align=center;verticalAlign=middle;whiteSpace=wrap;rounded=0;" parent="1" vertex="1">
          <mxGeometry x="1853" y="125" width="60" height="30" as="geometry" />
        </mxCell>
        <mxCell id="WnLP0OA23K2Bo2pzQ6Bt-45" value="" style="rounded=0;whiteSpace=wrap;html=1;fillColor=none;" parent="1" vertex="1">
          <mxGeometry x="1853" y="390" width="270" height="260" as="geometry" />
        </mxCell>
        <mxCell id="WnLP0OA23K2Bo2pzQ6Bt-46" value="&lt;span style=&quot;font-size: 24px;&quot;&gt;&lt;b&gt;Основные задачи&lt;/b&gt;&lt;/span&gt;" style="text;html=1;strokeColor=none;fillColor=none;align=center;verticalAlign=middle;whiteSpace=wrap;rounded=0;" parent="1" vertex="1">
          <mxGeometry x="2149.88" y="125" width="217" height="30" as="geometry" />
        </mxCell>
        <mxCell id="WnLP0OA23K2Bo2pzQ6Bt-47" value="" style="rounded=0;whiteSpace=wrap;html=1;fillColor=none;" parent="1" vertex="1">
          <mxGeometry x="1853" y="700" width="570" height="290" as="geometry" />
        </mxCell>
        <mxCell id="WnLP0OA23K2Bo2pzQ6Bt-48" value="&lt;span style=&quot;font-size: 24px;&quot;&gt;&lt;b&gt;Кратко о чем&lt;/b&gt;&lt;/span&gt;" style="text;html=1;strokeColor=none;fillColor=none;align=center;verticalAlign=middle;whiteSpace=wrap;rounded=0;" parent="1" vertex="1">
          <mxGeometry x="1853" y="670" width="164" height="30" as="geometry" />
        </mxCell>
        <mxCell id="WnLP0OA23K2Bo2pzQ6Bt-50" value="&lt;b&gt;&lt;font style=&quot;font-size: 14px;&quot;&gt;Создание прототипа M&lt;/font&gt;&lt;/b&gt;" style="rounded=0;whiteSpace=wrap;html=1;" parent="1" vertex="1">
          <mxGeometry x="372.75" y="240" width="178.5" height="30" as="geometry" />
        </mxCell>
        <mxCell id="WnLP0OA23K2Bo2pzQ6Bt-51" value="&lt;b&gt;&lt;font style=&quot;font-size: 14px;&quot;&gt;Создание прототипа S&lt;/font&gt;&lt;/b&gt;" style="rounded=0;whiteSpace=wrap;html=1;" parent="1" vertex="1">
          <mxGeometry x="372.75" y="280" width="178.5" height="30" as="geometry" />
        </mxCell>
        <mxCell id="WnLP0OA23K2Bo2pzQ6Bt-52" value="&lt;b&gt;&lt;font style=&quot;font-size: 14px;&quot;&gt;Создание прототипа L&lt;/font&gt;&lt;/b&gt;" style="rounded=0;whiteSpace=wrap;html=1;" parent="1" vertex="1">
          <mxGeometry x="372.75" y="320" width="178.5" height="30" as="geometry" />
        </mxCell>
        <mxCell id="WnLP0OA23K2Bo2pzQ6Bt-53" value="&lt;b&gt;&lt;font style=&quot;font-size: 14px;&quot;&gt;Создание прототипа аудио-хаба&lt;/font&gt;&lt;/b&gt;" style="rounded=0;whiteSpace=wrap;html=1;" parent="1" vertex="1">
          <mxGeometry x="372.75" y="360" width="237.75" height="30" as="geometry" />
        </mxCell>
        <mxCell id="WnLP0OA23K2Bo2pzQ6Bt-54" value="&lt;b&gt;&lt;font style=&quot;font-size: 14px;&quot;&gt;Создание прототипа хаб+динамик&lt;/font&gt;&lt;/b&gt;" style="rounded=0;whiteSpace=wrap;html=1;" parent="1" vertex="1">
          <mxGeometry x="372.75" y="400" width="247.75" height="30" as="geometry" />
        </mxCell>
        <mxCell id="WnLP0OA23K2Bo2pzQ6Bt-55" value="&lt;b&gt;&lt;font style=&quot;font-size: 14px;&quot;&gt;Создание модульного дисплея с сенсорным слоем и датчиками&lt;/font&gt;&lt;/b&gt;" style="rounded=0;whiteSpace=wrap;html=1;" parent="1" vertex="1">
          <mxGeometry x="372.75" y="440" width="247.75" height="40" as="geometry" />
        </mxCell>
        <mxCell id="WnLP0OA23K2Bo2pzQ6Bt-56" value="&lt;span style=&quot;font-size: 14px;&quot;&gt;&lt;b&gt;Схемотехника для всех узлов&lt;/b&gt;&lt;/span&gt;" style="rounded=0;whiteSpace=wrap;html=1;" parent="1" vertex="1">
          <mxGeometry x="372.75" y="490" width="247.75" height="30" as="geometry" />
        </mxCell>
        <mxCell id="WnLP0OA23K2Bo2pzQ6Bt-57" value="&lt;span style=&quot;font-size: 14px;&quot;&gt;&lt;b&gt;Создание устройств УД&lt;/b&gt;&lt;/span&gt;" style="rounded=0;whiteSpace=wrap;html=1;" parent="1" vertex="1">
          <mxGeometry x="373.13" y="530" width="247.75" height="30" as="geometry" />
        </mxCell>
        <mxCell id="WnLP0OA23K2Bo2pzQ6Bt-58" value="&lt;span style=&quot;font-size: 14px;&quot;&gt;&lt;b&gt;Написание софта&lt;/b&gt;&lt;/span&gt;" style="rounded=0;whiteSpace=wrap;html=1;" parent="1" vertex="1">
          <mxGeometry x="372.75" y="569.5" width="142.75" height="30" as="geometry" />
        </mxCell>
        <mxCell id="WnLP0OA23K2Bo2pzQ6Bt-59" value="&lt;span style=&quot;font-size: 14px;&quot;&gt;&lt;b&gt;Схемотехник&lt;/b&gt;&lt;/span&gt;" style="rounded=0;whiteSpace=wrap;html=1;" parent="1" vertex="1">
          <mxGeometry x="74" y="412" width="110" height="30" as="geometry" />
        </mxCell>
        <mxCell id="WnLP0OA23K2Bo2pzQ6Bt-60" value="&lt;span style=&quot;font-size: 14px;&quot;&gt;&lt;b&gt;Конструктор&lt;/b&gt;&lt;/span&gt;" style="rounded=0;whiteSpace=wrap;html=1;" parent="1" vertex="1">
          <mxGeometry x="195" y="412" width="110" height="30" as="geometry" />
        </mxCell>
        <mxCell id="WnLP0OA23K2Bo2pzQ6Bt-61" value="&lt;span style=&quot;font-size: 14px;&quot;&gt;&lt;b&gt;Lead of Hardware&lt;/b&gt;&lt;/span&gt;" style="rounded=0;whiteSpace=wrap;html=1;" parent="1" vertex="1">
          <mxGeometry x="74" y="450" width="140" height="30" as="geometry" />
        </mxCell>
        <mxCell id="WnLP0OA23K2Bo2pzQ6Bt-62" value="&lt;span style=&quot;font-size: 14px;&quot;&gt;&lt;b&gt;Разработчик С/C++&lt;/b&gt;&lt;/span&gt;" style="rounded=0;whiteSpace=wrap;html=1;" parent="1" vertex="1">
          <mxGeometry x="74" y="490" width="160" height="30" as="geometry" />
        </mxCell>
        <mxCell id="WnLP0OA23K2Bo2pzQ6Bt-63" value="&lt;span style=&quot;font-size: 14px;&quot;&gt;&lt;b&gt;Разработчик Python&lt;/b&gt;&lt;/span&gt;" style="rounded=0;whiteSpace=wrap;html=1;" parent="1" vertex="1">
          <mxGeometry x="74" y="530" width="160" height="30" as="geometry" />
        </mxCell>
        <mxCell id="WnLP0OA23K2Bo2pzQ6Bt-64" value="&lt;span style=&quot;font-size: 14px;&quot;&gt;&lt;b&gt;Обеспечение программной части на уровне устройств&lt;/b&gt;&lt;/span&gt;" style="rounded=0;whiteSpace=wrap;html=1;" parent="1" vertex="1">
          <mxGeometry x="1321.25" y="170" width="224.75" height="40" as="geometry" />
        </mxCell>
        <mxCell id="WnLP0OA23K2Bo2pzQ6Bt-65" value="&lt;span style=&quot;font-size: 14px;&quot;&gt;&lt;b&gt;Создание laarOS&lt;/b&gt;&lt;/span&gt;" style="rounded=0;whiteSpace=wrap;html=1;" parent="1" vertex="1">
          <mxGeometry x="1321.25" y="220" width="134.75" height="30" as="geometry" />
        </mxCell>
        <mxCell id="WnLP0OA23K2Bo2pzQ6Bt-66" value="&lt;span style=&quot;font-size: 14px;&quot;&gt;&lt;b&gt;Создание iOS приложения&lt;/b&gt;&lt;/span&gt;" style="rounded=0;whiteSpace=wrap;html=1;" parent="1" vertex="1">
          <mxGeometry x="1321.25" y="260" width="194.75" height="30" as="geometry" />
        </mxCell>
        <mxCell id="WnLP0OA23K2Bo2pzQ6Bt-67" value="&lt;span style=&quot;font-size: 14px;&quot;&gt;&lt;b&gt;Создание Android приложения&lt;/b&gt;&lt;/span&gt;" style="rounded=0;whiteSpace=wrap;html=1;" parent="1" vertex="1">
          <mxGeometry x="1321.25" y="300" width="224.75" height="30" as="geometry" />
        </mxCell>
        <mxCell id="WnLP0OA23K2Bo2pzQ6Bt-68" value="&lt;span style=&quot;font-size: 14px;&quot;&gt;&lt;b&gt;Создание Windows приложения&lt;/b&gt;&lt;/span&gt;" style="rounded=0;whiteSpace=wrap;html=1;" parent="1" vertex="1">
          <mxGeometry x="1321.25" y="340" width="234.75" height="30" as="geometry" />
        </mxCell>
        <mxCell id="WnLP0OA23K2Bo2pzQ6Bt-69" value="&lt;span style=&quot;font-size: 14px;&quot;&gt;&lt;b&gt;Создание Linux приложения&lt;/b&gt;&lt;/span&gt;" style="rounded=0;whiteSpace=wrap;html=1;" parent="1" vertex="1">
          <mxGeometry x="1321.25" y="380" width="214.75" height="30" as="geometry" />
        </mxCell>
        <mxCell id="WnLP0OA23K2Bo2pzQ6Bt-70" value="&lt;span style=&quot;font-size: 14px;&quot;&gt;&lt;b&gt;Создание системного демона&lt;/b&gt;&lt;/span&gt;" style="rounded=0;whiteSpace=wrap;html=1;" parent="1" vertex="1">
          <mxGeometry x="1321.25" y="420" width="224.75" height="30" as="geometry" />
        </mxCell>
        <mxCell id="WnLP0OA23K2Bo2pzQ6Bt-71" value="&lt;span style=&quot;font-size: 14px;&quot;&gt;&lt;b&gt;Secure Platform Development&lt;/b&gt;&lt;/span&gt;" style="rounded=0;whiteSpace=wrap;html=1;" parent="1" vertex="1">
          <mxGeometry x="1321.25" y="460" width="224.75" height="25" as="geometry" />
        </mxCell>
        <mxCell id="WnLP0OA23K2Bo2pzQ6Bt-72" value="&lt;span style=&quot;font-size: 14px;&quot;&gt;&lt;b&gt;Интерфейс взаимодействия и управления приложениями&lt;/b&gt;&lt;/span&gt;" style="rounded=0;whiteSpace=wrap;html=1;" parent="1" vertex="1">
          <mxGeometry x="1321.25" y="494" width="224.75" height="40" as="geometry" />
        </mxCell>
        <mxCell id="WnLP0OA23K2Bo2pzQ6Bt-73" value="&lt;span style=&quot;font-size: 14px;&quot;&gt;&lt;b&gt;Внедрение облачных решений&lt;/b&gt;&lt;/span&gt;" style="rounded=0;whiteSpace=wrap;html=1;" parent="1" vertex="1">
          <mxGeometry x="1321.25" y="544" width="224.75" height="30" as="geometry" />
        </mxCell>
        <mxCell id="WnLP0OA23K2Bo2pzQ6Bt-74" value="&lt;span style=&quot;font-size: 14px;&quot;&gt;&lt;b&gt;Создание УД&lt;/b&gt;&lt;/span&gt;" style="rounded=0;whiteSpace=wrap;html=1;" parent="1" vertex="1">
          <mxGeometry x="1321.25" y="584" width="104.75" height="30" as="geometry" />
        </mxCell>
        <mxCell id="WnLP0OA23K2Bo2pzQ6Bt-75" value="&lt;span style=&quot;font-size: 14px;&quot;&gt;&lt;b&gt;Работа над io&lt;/b&gt;&lt;/span&gt;" style="rounded=0;whiteSpace=wrap;html=1;" parent="1" vertex="1">
          <mxGeometry x="1441.25" y="584" width="104.75" height="30" as="geometry" />
        </mxCell>
        <mxCell id="WnLP0OA23K2Bo2pzQ6Bt-76" value="" style="shape=flexArrow;endArrow=classic;startArrow=classic;html=1;rounded=0;fillColor=#fad9d5;strokeColor=#ae4132;" parent="1" edge="1">
          <mxGeometry width="100" height="100" relative="1" as="geometry">
            <mxPoint x="666" y="533" as="sourcePoint" />
            <mxPoint x="962" y="533" as="targetPoint" />
          </mxGeometry>
        </mxCell>
        <mxCell id="WnLP0OA23K2Bo2pzQ6Bt-77" value="&lt;span style=&quot;font-size: 24px;&quot;&gt;&lt;b&gt;Аппаратная платорма и ее программная часть&lt;/b&gt;&lt;/span&gt;" style="text;html=1;strokeColor=none;fillColor=none;align=center;verticalAlign=middle;whiteSpace=wrap;rounded=0;" parent="1" vertex="1">
          <mxGeometry x="692" y="421" width="240" height="98" as="geometry" />
        </mxCell>
        <mxCell id="WnLP0OA23K2Bo2pzQ6Bt-79" value="" style="shape=flexArrow;endArrow=classic;startArrow=classic;html=1;rounded=0;fillColor=#fad9d5;strokeColor=#ae4132;" parent="1" edge="1">
          <mxGeometry width="100" height="100" relative="1" as="geometry">
            <mxPoint x="1602" y="528.89" as="sourcePoint" />
            <mxPoint x="1822" y="529" as="targetPoint" />
          </mxGeometry>
        </mxCell>
        <mxCell id="WnLP0OA23K2Bo2pzQ6Bt-81" value="" style="shape=flexArrow;endArrow=classic;startArrow=classic;html=1;rounded=0;fillColor=#fad9d5;strokeColor=#ae4132;" parent="1" edge="1">
          <mxGeometry width="100" height="100" relative="1" as="geometry">
            <mxPoint x="2453" y="539.64" as="sourcePoint" />
            <mxPoint x="2672" y="540" as="targetPoint" />
          </mxGeometry>
        </mxCell>
        <mxCell id="WnLP0OA23K2Bo2pzQ6Bt-82" value="&lt;span style=&quot;font-size: 14px;&quot;&gt;&lt;b&gt;SPD Group Manager&lt;/b&gt;&lt;/span&gt;" style="rounded=0;whiteSpace=wrap;html=1;" parent="1" vertex="1">
          <mxGeometry x="1016.25" y="365" width="237.75" height="30" as="geometry" />
        </mxCell>
        <mxCell id="WnLP0OA23K2Bo2pzQ6Bt-84" value="&lt;span style=&quot;font-size: 14px;&quot;&gt;&lt;b&gt;C++ Dev&lt;/b&gt;&lt;/span&gt;" style="rounded=0;whiteSpace=wrap;html=1;" parent="1" vertex="1">
          <mxGeometry x="1016.25" y="412" width="107.75" height="30" as="geometry" />
        </mxCell>
        <mxCell id="WnLP0OA23K2Bo2pzQ6Bt-85" value="&lt;span style=&quot;font-size: 14px;&quot;&gt;&lt;b&gt;C++ Dev&lt;/b&gt;&lt;/span&gt;" style="rounded=0;whiteSpace=wrap;html=1;" parent="1" vertex="1">
          <mxGeometry x="1144" y="412" width="110" height="30" as="geometry" />
        </mxCell>
        <mxCell id="WnLP0OA23K2Bo2pzQ6Bt-86" value="&lt;span style=&quot;font-size: 14px;&quot;&gt;&lt;b&gt;C++ Dev&lt;/b&gt;&lt;/span&gt;" style="rounded=0;whiteSpace=wrap;html=1;" parent="1" vertex="1">
          <mxGeometry x="1016.25" y="452" width="107.75" height="30" as="geometry" />
        </mxCell>
        <mxCell id="WnLP0OA23K2Bo2pzQ6Bt-89" value="&lt;span style=&quot;font-size: 14px;&quot;&gt;&lt;b&gt;Lead of Software&lt;/b&gt;&lt;/span&gt;" style="rounded=0;whiteSpace=wrap;html=1;" parent="1" vertex="1">
          <mxGeometry x="1017.5600000000002" y="544" width="237.75" height="30" as="geometry" />
        </mxCell>
        <mxCell id="WnLP0OA23K2Bo2pzQ6Bt-90" value="&lt;span style=&quot;font-size: 14px;&quot;&gt;&lt;b&gt;Android Dev&lt;/b&gt;&lt;/span&gt;" style="rounded=0;whiteSpace=wrap;html=1;" parent="1" vertex="1">
          <mxGeometry x="1016.6800000000001" y="502" width="106.87" height="30" as="geometry" />
        </mxCell>
        <mxCell id="WnLP0OA23K2Bo2pzQ6Bt-91" value="&lt;span style=&quot;font-size: 14px;&quot;&gt;&lt;b&gt;iOS Dev intern&lt;/b&gt;&lt;/span&gt;" style="rounded=0;whiteSpace=wrap;html=1;" parent="1" vertex="1">
          <mxGeometry x="1144.43" y="501" width="106.87" height="30" as="geometry" />
        </mxCell>
        <mxCell id="WnLP0OA23K2Bo2pzQ6Bt-99" value="&lt;span style=&quot;font-size: 14px;&quot;&gt;&lt;b&gt;Go Devs Group Manager&lt;/b&gt;&lt;/span&gt;" style="rounded=0;whiteSpace=wrap;html=1;" parent="1" vertex="1">
          <mxGeometry x="1869.1200000000001" y="405" width="237.75" height="30" as="geometry" />
        </mxCell>
        <mxCell id="WnLP0OA23K2Bo2pzQ6Bt-100" value="&lt;span style=&quot;font-size: 14px;&quot;&gt;&lt;b&gt;Go Dev&lt;/b&gt;&lt;/span&gt;" style="rounded=0;whiteSpace=wrap;html=1;" parent="1" vertex="1">
          <mxGeometry x="1869.1200000000001" y="445" width="107.75" height="30" as="geometry" />
        </mxCell>
        <mxCell id="WnLP0OA23K2Bo2pzQ6Bt-101" value="&lt;span style=&quot;font-size: 14px;&quot;&gt;&lt;b&gt;Go Dev&lt;/b&gt;&lt;/span&gt;" style="rounded=0;whiteSpace=wrap;html=1;" parent="1" vertex="1">
          <mxGeometry x="1869.13" y="485" width="107.75" height="30" as="geometry" />
        </mxCell>
        <mxCell id="WnLP0OA23K2Bo2pzQ6Bt-102" value="&lt;span style=&quot;font-size: 14px;&quot;&gt;&lt;b&gt;Go Dev&lt;/b&gt;&lt;/span&gt;" style="rounded=0;whiteSpace=wrap;html=1;" parent="1" vertex="1">
          <mxGeometry x="1999.12" y="445" width="107.75" height="30" as="geometry" />
        </mxCell>
        <mxCell id="WnLP0OA23K2Bo2pzQ6Bt-105" value="&lt;span style=&quot;font-size: 14px;&quot;&gt;&lt;b&gt;DevOps&lt;/b&gt;&lt;/span&gt;" style="rounded=0;whiteSpace=wrap;html=1;" parent="1" vertex="1">
          <mxGeometry x="1869.1200000000001" y="542.5" width="107.75" height="30" as="geometry" />
        </mxCell>
        <mxCell id="WnLP0OA23K2Bo2pzQ6Bt-106" value="&lt;span style=&quot;font-size: 14px;&quot;&gt;&lt;b&gt;Python Backend&lt;/b&gt;&lt;/span&gt;" style="rounded=0;whiteSpace=wrap;html=1;" parent="1" vertex="1">
          <mxGeometry x="1869.1200000000001" y="582.5" width="107.75" height="47" as="geometry" />
        </mxCell>
        <mxCell id="WnLP0OA23K2Bo2pzQ6Bt-107" value="&lt;span style=&quot;font-size: 14px;&quot;&gt;&lt;b&gt;Front-End intern&lt;/b&gt;&lt;/span&gt;" style="rounded=0;whiteSpace=wrap;html=1;" parent="1" vertex="1">
          <mxGeometry x="1993" y="543" width="107.75" height="47" as="geometry" />
        </mxCell>
        <mxCell id="WnLP0OA23K2Bo2pzQ6Bt-108" value="&lt;span style=&quot;font-size: 14px;&quot;&gt;&lt;b&gt;ML&lt;/b&gt;&lt;/span&gt;" style="rounded=0;whiteSpace=wrap;html=1;" parent="1" vertex="1">
          <mxGeometry x="1993" y="600" width="40.87" height="30" as="geometry" />
        </mxCell>
        <mxCell id="WnLP0OA23K2Bo2pzQ6Bt-109" value="&lt;span style=&quot;font-size: 14px;&quot;&gt;&lt;b&gt;ML&lt;/b&gt;&lt;/span&gt;" style="rounded=0;whiteSpace=wrap;html=1;" parent="1" vertex="1">
          <mxGeometry x="2059.88" y="600" width="40.87" height="30" as="geometry" />
        </mxCell>
        <mxCell id="qGWs88EKTY5hLM_o2CO8-2" value="&lt;span style=&quot;font-size: 14px;&quot;&gt;&lt;b&gt;Доработка laarStore&lt;/b&gt;&lt;/span&gt;" style="rounded=0;whiteSpace=wrap;html=1;" vertex="1" parent="1">
          <mxGeometry x="3003.12" y="292" width="152.88" height="30" as="geometry" />
        </mxCell>
        <mxCell id="qGWs88EKTY5hLM_o2CO8-3" value="&lt;span style=&quot;font-size: 14px;&quot;&gt;&lt;b&gt;Доработка laarDevSpace&lt;/b&gt;&lt;/span&gt;" style="rounded=0;whiteSpace=wrap;html=1;" vertex="1" parent="1">
          <mxGeometry x="3003.12" y="331" width="182.88" height="30" as="geometry" />
        </mxCell>
        <mxCell id="qGWs88EKTY5hLM_o2CO8-4" value="&lt;span style=&quot;font-size: 14px;&quot;&gt;&lt;b&gt;Написание авторских приложений&lt;/b&gt;&lt;/span&gt;" style="rounded=0;whiteSpace=wrap;html=1;" vertex="1" parent="1">
          <mxGeometry x="3003.12" y="372" width="252.88" height="30" as="geometry" />
        </mxCell>
        <mxCell id="qGWs88EKTY5hLM_o2CO8-5" value="&lt;span style=&quot;font-size: 14px;&quot;&gt;&lt;b&gt;RnD laarArea&lt;/b&gt;&lt;/span&gt;" style="rounded=0;whiteSpace=wrap;html=1;" vertex="1" parent="1">
          <mxGeometry x="3003.12" y="409" width="94.88" height="30" as="geometry" />
        </mxCell>
        <mxCell id="qGWs88EKTY5hLM_o2CO8-6" value="&lt;span style=&quot;font-size: 14px;&quot;&gt;&lt;b&gt;Утилиты для администрирования проверок приложений&lt;/b&gt;&lt;/span&gt;" style="rounded=0;whiteSpace=wrap;html=1;" vertex="1" parent="1">
          <mxGeometry x="3003.12" y="449" width="254.88" height="55" as="geometry" />
        </mxCell>
        <mxCell id="qGWs88EKTY5hLM_o2CO8-7" value="&lt;span style=&quot;font-size: 14px;&quot;&gt;&lt;b&gt;Go Dev&lt;/b&gt;&lt;/span&gt;" style="rounded=0;whiteSpace=wrap;html=1;" vertex="1" parent="1">
          <mxGeometry x="2716.13" y="420" width="107.75" height="30" as="geometry" />
        </mxCell>
        <mxCell id="qGWs88EKTY5hLM_o2CO8-8" value="&lt;span style=&quot;font-size: 14px;&quot;&gt;&lt;b&gt;DevOps intern&lt;/b&gt;&lt;/span&gt;" style="rounded=0;whiteSpace=wrap;html=1;" vertex="1" parent="1">
          <mxGeometry x="2839.25" y="420" width="107.75" height="30" as="geometry" />
        </mxCell>
        <mxCell id="qGWs88EKTY5hLM_o2CO8-9" value="&lt;span style=&quot;font-size: 14px;&quot;&gt;&lt;b&gt;Python Backend&lt;/b&gt;&lt;/span&gt;" style="rounded=0;whiteSpace=wrap;html=1;" vertex="1" parent="1">
          <mxGeometry x="2716.13" y="462" width="140.87" height="35" as="geometry" />
        </mxCell>
        <mxCell id="qGWs88EKTY5hLM_o2CO8-10" value="&lt;span style=&quot;font-size: 14px;&quot;&gt;&lt;b&gt;Python Integrations Engineer&lt;/b&gt;&lt;/span&gt;" style="rounded=0;whiteSpace=wrap;html=1;" vertex="1" parent="1">
          <mxGeometry x="2716.13" y="505" width="230.87" height="34" as="geometry" />
        </mxCell>
        <mxCell id="qGWs88EKTY5hLM_o2CO8-15" value="&lt;span style=&quot;font-size: 14px;&quot;&gt;&lt;b&gt;Python Dev&lt;/b&gt;&lt;/span&gt;" style="rounded=0;whiteSpace=wrap;html=1;" vertex="1" parent="1">
          <mxGeometry x="2716.13" y="548" width="93.87" height="34" as="geometry" />
        </mxCell>
      </root>
    </mxGraphModel>
  </diagram>
</mxfile>
